# xmcd
#
# Track frame offsets:
#  150
#  12449
#  26731
#  38017
#  48905
#  62168
#  77654
#  95997
#  107578
#  126771
#  137823
#  149804
#  169986
#  187139
#  208357
#  226312
#  241680
#  254777
#  271709
#
# Disc length: 3856 seconds
#
# Revision: 0
# Processed by: cddbd v1.5.1PL2 Copyright (c) Steve Scherf et al.
# Submitted via: Collectorz.com_Music_Collector 6.11
#
DISCID=1f0f0e13
DTITLE=Kentucky Head Hunters - Compilation Album
DYEAR=1900
DGENRE=
TTITLE0=Hot Rod Lincoln
TTITLE1=Oh Lonesome Me
TTITLE2=Redneck Girls
TTITLE3=Lousiana Saturday Night
TTITLE4=Keep Your Hands To Yourself
TTITLE5=Jessico
TTITLE6=Feed Jake
TTITLE7=Davy Crockett
TTITLE8=Cotton Eye Joe
TTITLE9=Blue Moon of Kentucky
TTITLE10=Skip A Rope
TTITLE11=My Daddy Was A Milkman
TTITLE12=Honky Tonk Walkin' mp3
TTITLE13=Too much too Loose-MP3
TTITLE14=See Rock City
TTITLE15=Fishin in the Dark
TTITLE16=Kentucky Headhunters - Dumas walker
TTITLE17=Kentucky Headhunters - Walk Softly On This Heart
TTITLE18=Kentucky Headhunters - Rock 'n' Roll Angel
EXTD=
EXTT0=
EXTT1=
EXTT2=
EXTT3=
EXTT4=
EXTT5=
EXTT6=
EXTT7=
EXTT8=
EXTT9=
EXTT10=
EXTT11=
EXTT12=
EXTT13=
EXTT14=
EXTT15=
EXTT16=
EXTT17=
EXTT18=
PLAYORDER=
